PathFileType	4	(X/Y/Z)	D:\TRACE\spot_10-12-23\spot_arm_motion_2_5-platform.trc
DataRate	CameraRate	NumFrames	NumMarkers	Units	OrigDataRate	OrigDataStartFrame	OrigNumFrames
100.00	100.00	      24	5	mm	100.00	876	      7000
Frame#	Time	Left_Front			Right_Front			Left_Aft			Right_Aft			Post			
		X1	Y1	Z1	X2	Y2	Z2	X3	Y3	Z3	X4	Y4	Z4	X5	Y5	Z5	

876	8.750	-811.34369	-54.39325	-653.29590	761.41479	-49.66927	-646.32043	-728.50989	45.88884	480.28055	689.00934	57.79151	565.86749	-28.05235	651.32556	-1039.99316	
877	8.760	-810.26556	-54.24652	-653.27325	762.01514	-49.39821	-646.31873	-727.88892	45.63340	480.31470	689.77167	57.55213	565.89081	-27.16072	651.82715	-1039.55994	
878	8.770	-809.33063	-53.97148	-653.31995	763.10529	-48.79391	-646.38879	-726.89337	45.35687	480.48999	690.70880	57.27916	565.91486	-26.07736	652.35162	-1039.17725	
879	8.780	-808.41919	-53.52659	-653.32593	763.86969	-48.38599	-646.33850	-726.01245	45.08739	480.55646	691.69312	57.02234	566.11017	-25.42106	652.86060	-1038.69031	
880	8.790	-807.89514	-53.00853	-653.10638	764.62421	-48.05410	-646.19159	-725.15601	44.72194	480.66028	692.45929	56.56999	566.17706	-24.41353	653.84277	-1037.96167	
881	8.800	-806.91156	-52.66606	-652.94501	765.50818	-47.60345	-646.49017	-724.23212	44.38380	480.70663	693.19666	56.17886	566.28094	-23.51506	654.34784	-1037.56262	
882	8.810	-805.55603	-52.41880	-653.05267	766.46454	-47.10012	-646.20435	-723.06244	44.13696	480.89795	694.44684	55.87012	566.54810	-22.68993	655.04974	-1036.83569	
883	8.820	-804.72107	-52.01258	-652.92737	767.63416	-46.59109	-645.95898	-722.23535	43.77846	481.04712	695.34277	55.45505	566.73077	-21.54580	655.97144	-1036.06506	
884	8.830	-803.97491	-51.18204	-652.90704	768.44025	-45.99017	-645.87976	-721.11938	43.37342	481.13580	696.02631	55.06500	566.90155	-20.66919	656.70734	-1035.43970	
885	8.840	-802.97040	-50.56501	-652.79199	769.48859	-45.59203	-645.95367	-720.24066	43.08512	481.26141	697.33203	54.67992	567.06549	-19.79612	657.53711	-1034.62244	
886	8.850	-801.93567	-50.11551	-652.65143	770.30872	-45.01949	-645.80865	-719.31049	42.60874	481.57993	698.16565	54.27148	567.17542	-18.58961	658.55621	-1033.87805	
887	8.860	-801.12238	-49.11277	-652.56165	771.34003	-44.09016	-645.63672	-718.35175	42.23673	481.63095	699.18427	53.73959	567.30963	-17.61967	659.51361	-1033.02734	
888	8.870	-800.09900	-48.62466	-652.52039	772.28784	-43.68639	-645.58765	-717.15924	41.76046	482.20145	700.34271	53.27098	567.43188	-16.72432	660.78754	-1031.99939	
889	8.880	-799.17950	-47.94255	-652.22955	773.49982	-42.75003	-645.35779	-716.24261	41.31147	482.32788	701.28046	52.55989	567.61914	-15.92073	661.91260	-1031.16565	
890	8.890	-798.07928	-47.30172	-652.16711	774.68970	-42.17029	-645.09033	-715.06378	40.87696	482.51929	702.05554	51.92827	567.87732	-14.77246	663.13062	-1030.04272	
891	8.900	-796.92932	-46.18302	-652.23578	775.36053	-41.47091	-645.06720	-714.28198	40.45095	482.87463	703.15637	51.22269	568.09058	-13.88198	664.37238	-1029.15759	
892	8.910	-795.99921	-45.38684	-652.04584	776.51709	-40.30706	-645.28381	-713.22815	39.72879	482.96695	704.32111	50.71200	568.37000	-12.68924	665.50360	-1028.09094	
893	8.920	-795.20697	-44.57420	-651.60321	777.29480	-39.73163	-644.84845	-712.24896	39.16898	483.04132	705.56592	50.07039	568.69989	-11.29145	667.18213	-1027.24695	
894	8.930	-793.87073	-43.60443	-651.66809	778.80334	-38.44991	-644.88403	-711.15466	38.42810	483.44623	706.41205	49.38564	568.94440	-10.15977	668.58459	-1025.81543	
895	8.940	-792.79071	-42.78741	-651.56763	779.43768	-37.85395	-644.50079	-710.14368	37.97913	483.58136	707.56116	48.76823	569.25562	-9.51531	669.95709	-1024.84277	
896	8.950	-791.99799	-41.58661	-651.28369	780.86005	-36.63021	-644.41522	-708.95050	37.30404	483.89325	708.52692	47.92746	569.63483	-8.26414	671.54797	-1023.56964	
897	8.960	-791.06683	-40.50680	-651.06262	781.62372	-35.69196	-644.20819	-707.90894	36.71954	484.23358	709.53644	47.02382	569.83734	-7.25238	673.00647	-1022.43250	
898	8.970	-789.52484	-39.99042	-650.94379	782.69836	-34.80476	-644.36713	-706.79657	36.07047	484.33044	710.71875	46.22561	570.05267	-6.19954	674.50177	-1021.17029	
899	8.980	-788.55249	-38.48799	-650.79529	784.00073	-33.62533	-643.81750	-705.78357	35.44594	484.71872	711.81976	45.60992	570.39032	-5.41725	676.15778	-1019.69550	
